<?xml version="1.0" encoding="utf-8"?>
<!-- Generator: Adobe Illustrator 24.3.0, SVG Export Plug-In . SVG Version: 6.00 Build 0)  -->
<svg version="1.1" id="Layer_1" xmlns="http://www.w3.org/2000/svg" xmlns:xlink="http://www.w3.org/1999/xlink" x="0px" y="0px"
	 viewBox="0 0 22 22" enable-background="new 0 0 22 22" xml:space="preserve">
<g id="airplane-descending">
	<path fill="#808285" d="M1.3242,11.0332l18.3242,6.6694c0.7774,0.2832,1.6387-0.1181,1.9219-0.8964
		c0.2832-0.7789-0.1191-1.6397-0.8965-1.9229l-6.3203-2.3003L13.5371,2.0806c-0.0449-0.5489-0.5019-1.1509-1.0176-1.3394
		l-1.8808-0.6836C10.123-0.1309,9.623,0.1587,9.5313,0.7012l-1.629,9.5342L3.4512,8.6147l0.3066-2.936
		c0.086-0.8232-0.5117-1.5644-1.3379-1.6479C1.5977,3.9448,0.8594,4.543,0.7734,5.3672L0.3457,9.4678
		C0.2734,10.1523,0.6777,10.7979,1.3242,11.0332z"/>
	<rect y="20" fill="#BCBEC0" width="22" height="2"/>
</g>
</svg>
