<?xml version="1.0" encoding="utf-8"?>
<!-- Generator: Adobe Illustrator 24.3.0, SVG Export Plug-In . SVG Version: 6.00 Build 0)  -->
<svg version="1.1" id="Layer_1" xmlns="http://www.w3.org/2000/svg" xmlns:xlink="http://www.w3.org/1999/xlink" x="0px" y="0px"
	 viewBox="0 0 23.6323 20" enable-background="new 0 0 23.6323 20" xml:space="preserve">
<g id="airplane-ascending">
	<path fill="#808285" d="M2.5659,14.5874c0.3848,0.5703,1.1084,0.8057,1.7549,0.5698L22.645,8.4878
		c0.7783-0.2832,1.1797-1.1436,0.8965-1.9224s-1.1445-1.1797-1.9229-0.8965l-6.3203,2.3008L7.9214,0.4492
		c-0.3858-0.3926-1.1231-0.56-1.6397-0.3721L4.4018,0.7612c-0.5166,0.1885-0.7129,0.731-0.4345,1.2056l4.8808,8.3506L4.395,11.9385
		L2.7427,9.4917c-0.462-0.6865-1.3965-0.8696-2.0821-0.4033c-0.6865,0.4634-0.8672,1.396-0.4033,2.082L2.5659,14.5874z"/>
	<rect x="0.8159" y="18" fill="#BCBEC0" width="22" height="2"/>
</g>
</svg>
